<svg xmlns="http://www.w3.org/2000/svg" width="22" height="22" viewBox="0 0 22 22">
  <metadata><?xpacket begin="﻿" id="W5M0MpCehiHzreSzNTczkc9d"?>
<x:xmpmeta xmlns:x="adobe:ns:meta/" x:xmptk="Adobe XMP Core 5.6-c138 79.159824, 2016/09/14-01:09:01        ">
   <rdf:RDF xmlns:rdf="http://www.w3.org/1999/02/22-rdf-syntax-ns#">
      <rdf:Description rdf:about=""/>
   </rdf:RDF>
</x:xmpmeta>
                                                                                                    
                                                                                                    
                                                                                                    
                                                                                                    
                                                                                                    
                                                                                                    
                                                                                                    
                                                                                                    
                                                                                                    
                                                                                                    
                                                                                                    
                                                                                                    
                                                                                                    
                                                                                                    
                                                                                                    
                                                                                                    
                                                                                                    
                                                                                                    
                                                                                                    
                                                                                                    
                           
<?xpacket end="w"?></metadata>
<defs>
    <style>
      .cls-1 {
        fill: #17191b;
        fill-rule: evenodd;
      }
    </style>
  </defs>
  <path id="Shape_1_copy" data-name="Shape 1 copy" class="cls-1" d="M408.846,954c1.033,0,.685-2.171.685-2.171s2.208-5.986,4.32-7.581a4.567,4.567,0,0,0,.914-1.407h0c0.041-.1.078-0.2,0.11-0.292a2.713,2.713,0,0,1,1.088-1.1l-2.112-9.028a50.881,50.881,0,0,0-6.546-.351,14.126,14.126,0,0,0-3.807.122c-3.758.786-2.816,3.361-2.816,3.361a2.5,2.5,0,0,0-.873,3.366,2.239,2.239,0,0,0-.032,3.4,2.055,2.055,0,0,0,.283,2.62c1.568,1.411,5.824.471,5.824,0.471h0c0.3-.049.612-0.112,0.95-0.193,0,0,1.472-.674,0,3.717S407.813,954,408.846,954Zm6.522-20.929,1.6,7.474a1.04,1.04,0,0,0,.974.777H421l0-9.024h-4.987A0.619,0.619,0,0,0,415.368,933.071Z" transform="translate(-399 -932)"/>
</svg>
