<svg xmlns="http://www.w3.org/2000/svg" width="57" height="63" viewBox="0 0 57 63">
  <metadata><?xpacket begin="﻿" id="W5M0MpCehiHzreSzNTczkc9d"?>
<x:xmpmeta xmlns:x="adobe:ns:meta/" x:xmptk="Adobe XMP Core 5.6-c138 79.159824, 2016/09/14-01:09:01        ">
   <rdf:RDF xmlns:rdf="http://www.w3.org/1999/02/22-rdf-syntax-ns#">
      <rdf:Description rdf:about=""/>
   </rdf:RDF>
</x:xmpmeta>
                                                                                                    
                                                                                                    
                                                                                                    
                                                                                                    
                                                                                                    
                                                                                                    
                                                                                                    
                                                                                                    
                                                                                                    
                                                                                                    
                                                                                                    
                                                                                                    
                                                                                                    
                                                                                                    
                                                                                                    
                                                                                                    
                                                                                                    
                                                                                                    
                                                                                                    
                                                                                                    
                           
<?xpacket end="w"?></metadata>
<defs>
    <style>
      .cls-1 {
        fill: #1bcac6;
        fill-rule: evenodd;
      }
    </style>
  </defs>
  <path class="cls-1" d="M888.989,677.076L886.4,661.607a6.242,6.242,0,0,0-4.784-5.06l-9.924-2.278-1.9-2.83a1,1,0,0,0-.695-0.431,0.81,0.81,0,0,0-.13-0.007v0h-16.93a0.945,0.945,0,0,0-.13.008,0.994,0.994,0,0,0-.695.431l-1.9,2.83-9.924,2.278a6.242,6.242,0,0,0-4.784,5.06l-2.593,15.469a0.984,0.984,0,0,0,.61,1.078l9.958,3.961v30.9a0.989,0.989,0,0,0,.992.986H877.43a0.989,0.989,0,0,0,.992-0.986v-30.9l9.957-3.961A0.984,0.984,0,0,0,888.989,677.076ZM869.9,655.16l-4.321,6.875a0.059,0.059,0,0,1-.044.03,0.062,0.062,0,0,1-.053-0.013l-3.437-2.734,6.722-5.849Zm-3.575-2.188L860.5,658.04l-5.825-5.068h11.65Zm-4.7,8.537v9.417a0.065,0.065,0,0,1-.066.065h-2.116a0.066,0.066,0,0,1-.066-0.065v-9.417l1.124-.895Zm-9.391-8.04,6.722,5.848-3.437,2.734a0.061,0.061,0,0,1-.052.014,0.061,0.061,0,0,1-.045-0.03L851.1,655.16Zm-9.654,26.521-8.48-3.372,0.328-1.954,8.152,3.242v2.084Zm33.859,32.037H844.562v-2.236h31.875v2.236h0Zm0.991-43.14a0.989,0.989,0,0,0-.992.987v37.944H844.562V669.873a0.992,0.992,0,0,0-1.984,0v5.908l-7.817-3.109,1.8-10.74a4.273,4.273,0,0,1,3.273-3.463l9.619-2.207,4.285,6.819a2.057,2.057,0,0,0,1.394.929,2.1,2.1,0,0,0,.344.028,2.059,2.059,0,0,0,1.281-.446l0.635-.5v7.839a2.046,2.046,0,0,0,2.05,2.038h2.116a2.046,2.046,0,0,0,2.05-2.038v-7.839l0.634,0.5a2.059,2.059,0,0,0,1.281.446,2.091,2.091,0,0,0,.344-0.028,2.051,2.051,0,0,0,1.394-.929l4.286-6.819,9.619,2.207a4.273,4.273,0,0,1,3.273,3.463l1.8,10.74-7.818,3.109v-5.908A0.989,0.989,0,0,0,877.429,668.887Zm0.992,11.1v-2.084l8.152-3.242,0.328,1.954Z" transform="translate(-832 -651)"/>
</svg>
