<svg xmlns="http://www.w3.org/2000/svg" width="56" height="59" viewBox="0 0 56 59">
  <metadata><?xpacket begin="﻿" id="W5M0MpCehiHzreSzNTczkc9d"?>
<x:xmpmeta xmlns:x="adobe:ns:meta/" x:xmptk="Adobe XMP Core 5.6-c138 79.159824, 2016/09/14-01:09:01        ">
   <rdf:RDF xmlns:rdf="http://www.w3.org/1999/02/22-rdf-syntax-ns#">
      <rdf:Description rdf:about=""/>
   </rdf:RDF>
</x:xmpmeta>
                                                                                                    
                                                                                                    
                                                                                                    
                                                                                                    
                                                                                                    
                                                                                                    
                                                                                                    
                                                                                                    
                                                                                                    
                                                                                                    
                                                                                                    
                                                                                                    
                                                                                                    
                                                                                                    
                                                                                                    
                                                                                                    
                                                                                                    
                                                                                                    
                                                                                                    
                                                                                                    
                           
<?xpacket end="w"?></metadata>
<defs>
    <style>
      .cls-1 {
        fill: #1bcac6;
        fill-rule: evenodd;
      }
    </style>
  </defs>
  <path id="Forma_1_copy_3" data-name="Forma 1 copy 3" class="cls-1" d="M648.707,680.227h-0.642v-5.241a1.12,1.12,0,0,0-1.117-1.124h-0.1V663.139a1.126,1.126,0,0,0-.618-1.006l-8.644-4.353a1.111,1.111,0,0,0-1.087.049,1.125,1.125,0,0,0-.53.957v15.076h-0.1a1.12,1.12,0,0,0-1.117,1.124v5.241h-0.643A1.121,1.121,0,0,0,633,681.352v29.523A1.121,1.121,0,0,0,634.117,712h14.59a1.121,1.121,0,0,0,1.117-1.125V681.352A1.121,1.121,0,0,0,648.707,680.227Zm-10.5-19.621,6.411,3.228v10.028h-6.411V660.606Zm-1.213,15.5h8.837v4.116h-8.837v-4.116Zm10.6,33.639H635.234V682.476H647.59V709.75Zm40.293-11.121H651.6a1.125,1.125,0,0,0,0,2.25h34.506l-0.255.535a8.514,8.514,0,0,1-7.636,4.832H651.6a1.125,1.125,0,0,0,0,2.25h26.615a10.76,10.76,0,0,0,9.649-6.107l1.026-2.147a1.131,1.131,0,0,0-.06-1.086A1.116,1.116,0,0,0,687.883,698.629ZM649.02,661.27a22.322,22.322,0,0,1,15.268-6.021,22.665,22.665,0,0,1,14.4,40.012,1.129,1.129,0,0,0-.141,1.584,1.113,1.113,0,0,0,1.573.142A24.918,24.918,0,0,0,664.288,653a24.545,24.545,0,0,0-16.786,6.62,1.132,1.132,0,0,0-.061,1.59A1.113,1.113,0,0,0,649.02,661.27Zm15.268-1.343a17.954,17.954,0,0,1,0,35.908,17.726,17.726,0,0,1-11.94-4.618,1.112,1.112,0,0,0-1.578.082,1.13,1.13,0,0,0,.081,1.588,19.949,19.949,0,0,0,13.437,5.2,20.2,20.2,0,1,0-16.172-32.168,1.131,1.131,0,0,0,.238,1.573,1.112,1.112,0,0,0,1.562-.24A17.872,17.872,0,0,1,664.288,659.927Zm12.289,9.094-20.386,20.525a1.13,1.13,0,0,0,0,1.59,1.111,1.111,0,0,0,1.58,0l20.386-20.525a1.13,1.13,0,0,0,0-1.59A1.111,1.111,0,0,0,676.577,669.021ZM662.4,689.685a1.13,1.13,0,0,0,0,1.59,1.113,1.113,0,0,0,1.58,0l15.3-15.41a1.131,1.131,0,0,0,0-1.591,1.112,1.112,0,0,0-1.58,0Z" transform="translate(-633 -653)"/>
</svg>
