<svg xmlns="http://www.w3.org/2000/svg" width="22" height="22" viewBox="0 0 22 22">
  <metadata><?xpacket begin="﻿" id="W5M0MpCehiHzreSzNTczkc9d"?>
<x:xmpmeta xmlns:x="adobe:ns:meta/" x:xmptk="Adobe XMP Core 5.6-c138 79.159824, 2016/09/14-01:09:01        ">
   <rdf:RDF xmlns:rdf="http://www.w3.org/1999/02/22-rdf-syntax-ns#">
      <rdf:Description rdf:about=""/>
   </rdf:RDF>
</x:xmpmeta>
                                                                                                    
                                                                                                    
                                                                                                    
                                                                                                    
                                                                                                    
                                                                                                    
                                                                                                    
                                                                                                    
                                                                                                    
                                                                                                    
                                                                                                    
                                                                                                    
                                                                                                    
                                                                                                    
                                                                                                    
                                                                                                    
                                                                                                    
                                                                                                    
                                                                                                    
                                                                                                    
                           
<?xpacket end="w"?></metadata>
<defs>
    <style>
      .cls-1 {
        fill: #17191b;
        fill-rule: evenodd;
      }
    </style>
  </defs>
  <path class="cls-1" d="M411.154,874c-1.033,0-.685,2.171-0.685,2.171s-2.208,5.986-4.32,7.581a4.557,4.557,0,0,0-.914,1.406h0c-0.041.1-.078,0.2-0.11,0.292a2.708,2.708,0,0,1-1.088,1.1l2.112,9.028a50.775,50.775,0,0,0,6.546.35,14.087,14.087,0,0,0,3.807-.121c3.758-.786,2.816-3.361,2.816-3.361a2.5,2.5,0,0,0,.873-3.366,2.239,2.239,0,0,0,.032-3.4,2.055,2.055,0,0,0-.283-2.62c-1.568-1.411-5.824-.472-5.824-0.472h0c-0.3.05-.612,0.113-0.951,0.194,0,0-1.471.674,0-3.717S412.187,874,411.154,874Zm-6.523,20.928-1.6-7.473a1.041,1.041,0,0,0-.974-0.778h-3.053l0,9.024h4.987A0.618,0.618,0,0,0,404.631,894.928Z" transform="translate(-399 -874)"/>
</svg>
