<svg xmlns="http://www.w3.org/2000/svg" width="16" height="17" viewBox="0 0 16 17">
  <metadata><?xpacket begin="﻿" id="W5M0MpCehiHzreSzNTczkc9d"?>
<x:xmpmeta xmlns:x="adobe:ns:meta/" x:xmptk="Adobe XMP Core 5.6-c138 79.159824, 2016/09/14-01:09:01        ">
   <rdf:RDF xmlns:rdf="http://www.w3.org/1999/02/22-rdf-syntax-ns#">
      <rdf:Description rdf:about=""/>
   </rdf:RDF>
</x:xmpmeta>
                                                                                                    
                                                                                                    
                                                                                                    
                                                                                                    
                                                                                                    
                                                                                                    
                                                                                                    
                                                                                                    
                                                                                                    
                                                                                                    
                                                                                                    
                                                                                                    
                                                                                                    
                                                                                                    
                                                                                                    
                                                                                                    
                                                                                                    
                                                                                                    
                                                                                                    
                                                                                                    
                           
<?xpacket end="w"?></metadata>
<defs>
    <style>
      .cls-1 {
        fill: #1bcac6;
        fill-rule: evenodd;
      }
    </style>
  </defs>
  <path id="Forma_1_copy_2" data-name="Forma 1 copy 2" class="cls-1" d="M1102,83.5a4.291,4.291,0,0,0,3.09-1.245,4.191,4.191,0,0,0,0-6.011,4.458,4.458,0,0,0-6.18,0,4.191,4.191,0,0,0,0,6.011A4.291,4.291,0,0,0,1102,83.5Zm7.96,4.489a10.879,10.879,0,0,0-.46-2.408,5.242,5.242,0,0,0-.49-1.079,3.9,3.9,0,0,0-.7-0.9,3.045,3.045,0,0,0-.97-0.593,3.553,3.553,0,0,0-1.27-.221,1.394,1.394,0,0,0-.48.238c-0.25.159-.53,0.336-0.85,0.531a5.35,5.35,0,0,1-1.22.531,4.969,4.969,0,0,1-3.04,0,5.656,5.656,0,0,1-1.23-.531l-0.84-.531a1.394,1.394,0,0,0-.48-0.238,3.553,3.553,0,0,0-1.27.221,3.045,3.045,0,0,0-.97.593,3.9,3.9,0,0,0-.7.9,5.242,5.242,0,0,0-.49,1.079,10.879,10.879,0,0,0-.46,2.408c-0.03.373-.04,0.754-0.04,1.146a2.7,2.7,0,0,0,.83,2.1,3.107,3.107,0,0,0,2.2.769h9.94a3.107,3.107,0,0,0,2.2-.769,2.7,2.7,0,0,0,.83-2.1C1110,88.743,1109.99,88.361,1109.96,87.988Z" transform="translate(-1094 -75)"/>
</svg>
