<svg xmlns="http://www.w3.org/2000/svg" width="16" height="17" viewBox="0 0 16 17">
  <metadata><?xpacket begin="﻿" id="W5M0MpCehiHzreSzNTczkc9d"?>
<x:xmpmeta xmlns:x="adobe:ns:meta/" x:xmptk="Adobe XMP Core 5.6-c138 79.159824, 2016/09/14-01:09:01        ">
   <rdf:RDF xmlns:rdf="http://www.w3.org/1999/02/22-rdf-syntax-ns#">
      <rdf:Description rdf:about=""/>
   </rdf:RDF>
</x:xmpmeta>
                                                                                                    
                                                                                                    
                                                                                                    
                                                                                                    
                                                                                                    
                                                                                                    
                                                                                                    
                                                                                                    
                                                                                                    
                                                                                                    
                                                                                                    
                                                                                                    
                                                                                                    
                                                                                                    
                                                                                                    
                                                                                                    
                                                                                                    
                                                                                                    
                                                                                                    
                                                                                                    
                           
<?xpacket end="w"?></metadata>
<defs>
    <style>
      .cls-1 {
        fill: #05beeb;
        fill-rule: evenodd;
      }
    </style>
  </defs>
  <path id="Forma_1_copy_4" data-name="Forma 1 copy 4" class="cls-1" d="M1102,161.5a4.289,4.289,0,0,0,3.09-1.245,4.19,4.19,0,0,0,0-6.01,4.457,4.457,0,0,0-6.18,0,4.19,4.19,0,0,0,0,6.01A4.289,4.289,0,0,0,1102,161.5Zm7.96,4.489a10.9,10.9,0,0,0-.46-2.408,5.245,5.245,0,0,0-.49-1.078,3.9,3.9,0,0,0-.7-0.9,3.044,3.044,0,0,0-.97-0.593,3.559,3.559,0,0,0-1.27-.221,1.4,1.4,0,0,0-.48.238c-0.25.159-.53,0.336-0.85,0.532a5.4,5.4,0,0,1-1.22.531,4.973,4.973,0,0,1-3.04,0,5.71,5.71,0,0,1-1.23-.531l-0.84-.532a1.4,1.4,0,0,0-.48-0.238,3.559,3.559,0,0,0-1.27.221,3.044,3.044,0,0,0-.97.593,3.9,3.9,0,0,0-.7.9,5.245,5.245,0,0,0-.49,1.078,10.9,10.9,0,0,0-.46,2.408c-0.03.373-.04,0.755-0.04,1.146a2.7,2.7,0,0,0,.83,2.1,3.107,3.107,0,0,0,2.2.77h9.94a3.107,3.107,0,0,0,2.2-.77,2.7,2.7,0,0,0,.83-2.1C1110,166.743,1109.99,166.361,1109.96,165.988Z" transform="translate(-1094 -153)"/>
</svg>
