<svg xmlns="http://www.w3.org/2000/svg" width="26" height="13.969" viewBox="0 0 26 13.969">
  <metadata><?xpacket begin="﻿" id="W5M0MpCehiHzreSzNTczkc9d"?>
<x:xmpmeta xmlns:x="adobe:ns:meta/" x:xmptk="Adobe XMP Core 5.6-c138 79.159824, 2016/09/14-01:09:01        ">
   <rdf:RDF xmlns:rdf="http://www.w3.org/1999/02/22-rdf-syntax-ns#">
      <rdf:Description rdf:about=""/>
   </rdf:RDF>
</x:xmpmeta>
                                                                                                    
                                                                                                    
                                                                                                    
                                                                                                    
                                                                                                    
                                                                                                    
                                                                                                    
                                                                                                    
                                                                                                    
                                                                                                    
                                                                                                    
                                                                                                    
                                                                                                    
                                                                                                    
                                                                                                    
                                                                                                    
                                                                                                    
                                                                                                    
                                                                                                    
                                                                                                    
                           
<?xpacket end="w"?></metadata>
<defs>
    <style>
      .cls-1 {
        fill: #05cbfb;
        fill-rule: evenodd;
      }
    </style>
  </defs>
  <path id="Forma_1" data-name="Forma 1" class="cls-1" d="M844.652,64.091a0.572,0.572,0,0,0-.58.068c-0.105.059-1.24,0.614-6.611,0.614a9.581,9.581,0,0,0-5.408,1.688,9.581,9.581,0,0,0-5.408-1.688c-5.21,0-6.518-.521-6.713-0.616a0.512,0.512,0,0,0-.591-0.111,0.608,0.608,0,0,0-.341.586,27.5,27.5,0,0,0,.9,6.548c1.233,4.461,3.564,6.819,6.74,6.819a9.822,9.822,0,0,0,5.408-1.416A9.822,9.822,0,0,0,837.461,78c3.134,0,5.433-2.359,6.648-6.821A27.9,27.9,0,0,0,845,64.633,0.592,0.592,0,0,0,844.652,64.091Zm-14.331,8.893a0.578,0.578,0,0,1-.437.262c-0.051,0-1.3.106-3.781,0.106-2.88,0-4.231-4.182-4.287-4.36a0.6,0.6,0,0,1,.084-0.529,0.577,0.577,0,0,1,.469-0.243H826.1c2.877,0,4.229,4.079,4.286,4.252A0.6,0.6,0,0,1,830.321,72.984Zm11.863-3.992c-0.056.178-1.407,4.36-4.287,4.36-2.484,0-3.73-.1-3.781-0.106a0.578,0.578,0,0,1-.437-0.262,0.6,0.6,0,0,1-.068-0.511c0.057-.174,1.41-4.252,4.286-4.252h3.734a0.579,0.579,0,0,1,.469.243A0.6,0.6,0,0,1,842.184,68.992Z" transform="translate(-819 -64.031)"/>
</svg>
