<svg xmlns="http://www.w3.org/2000/svg" width="18.18" height="17" viewBox="0 0 18.18 17">
  <metadata><?xpacket begin="﻿" id="W5M0MpCehiHzreSzNTczkc9d"?>
<x:xmpmeta xmlns:x="adobe:ns:meta/" x:xmptk="Adobe XMP Core 5.6-c138 79.159824, 2016/09/14-01:09:01        ">
   <rdf:RDF xmlns:rdf="http://www.w3.org/1999/02/22-rdf-syntax-ns#">
      <rdf:Description rdf:about=""/>
   </rdf:RDF>
</x:xmpmeta>

                           
<?xpacket end="w"?></metadata>
<defs>
    <style>
      .cls-1 {
        fill: #7f7f7f;
        fill-rule: evenodd;
      }
    </style>
  </defs>
  <path id="Forma_1_copy_7" data-name="Forma 1 copy 7" class="cls-1" d="M1018.21,1225.7a1.263,1.263,0,0,0,.33-1.3,1.293,1.293,0,0,0-1.06-.87l-4.41-.62a0.6,0.6,0,0,1-.43-0.31l-1.97-3.89a1.319,1.319,0,0,0-2.34,0l-1.97,3.89a0.577,0.577,0,0,1-.43.31l-4.41.62a1.293,1.293,0,0,0-1.06.87,1.263,1.263,0,0,0,.33,1.3l3.19,3.03a0.558,0.558,0,0,1,.17.5l-0.75,4.27a1.226,1.226,0,0,0,.28,1.04,1.356,1.356,0,0,0,1.61.31l3.94-2.02a0.574,0.574,0,0,1,.54,0l3.94,2.02a1.434,1.434,0,0,0,.61.14,1.321,1.321,0,0,0,1-.45,1.226,1.226,0,0,0,.28-1.04l-0.75-4.27a0.558,0.558,0,0,1,.17-0.5Z" transform="translate(-1000.41 -1218)"/>
</svg>
